<?xml version="1.0" standalone="no"?>
<!DOCTYPE svg PUBLIC "-//W3C//DTD SVG 20010904//EN"
 "http://www.w3.org/TR/2001/REC-SVG-20010904/DTD/svg10.dtd">
<svg version="1.0" xmlns="http://www.w3.org/2000/svg"
 width="512.000000pt" height="512.000000pt" viewBox="0 0 512.000000 512.000000"
 preserveAspectRatio="xMidYMid meet">
<metadata>
Created by potrace 1.14, written by Peter Selinger 2001-2017
</metadata>
<g transform="translate(0.000000,512.000000) scale(0.100000,-0.100000)"
fill="#000000" stroke="none">
<path d="M1301 4925 l-32 -52 25 -67 c54 -143 164 -277 311 -381 148 -104 233
-172 308 -248 42 -43 77 -84 77 -90 0 -7 13 2 28 18 15 17 43 42 62 55 19 13
37 25 39 27 10 7 -139 117 -214 158 -189 105 -340 264 -518 547 l-54 86 -32
-53z"/>
<path d="M3772 4918 c-22 -50 -76 -136 -121 -193 -74 -93 -167 -176 -351 -314
-107 -80 -202 -151 -210 -158 -8 -7 -32 -26 -54 -43 -21 -16 -34 -30 -28 -30
6 0 39 -26 73 -57 38 -35 64 -53 66 -46 3 7 26 46 52 85 63 97 151 183 291
287 189 140 276 234 336 365 l26 56 -27 45 c-14 25 -28 45 -30 45 -2 0 -13
-19 -23 -42z"/>
<path d="M3885 4729 c-56 -108 -167 -223 -331 -345 -187 -138 -284 -245 -334
-370 -19 -45 -21 -59 -11 -80 18 -41 14 -70 -13 -82 -32 -14 -55 5 -81 68 -42
101 -121 182 -188 194 -58 10 -67 17 -67 46 0 23 12 37 65 76 35 27 64 52 65
55 0 12 -155 52 -245 64 -42 6 -224 6 -263 0 -89 -12 -115 -17 -169 -31 -72
-18 -143 -45 -143 -53 0 -3 20 -23 45 -44 70 -60 61 -106 -22 -112 -58 -4
-129 -78 -188 -195 -37 -73 -41 -78 -70 -72 -37 7 -42 44 -15 102 22 48 23 50
5 77 -48 72 -178 188 -350 310 -164 117 -266 227 -328 356 -16 31 -32 55 -37
52 -24 -15 -116 -351 -135 -495 -3 -25 -7 -61 -10 -80 -17 -136 -24 -491 -11
-585 3 -22 8 -67 11 -100 3 -33 8 -61 10 -63 2 -2 25 16 52 40 26 24 69 61 96
83 26 21 45 40 42 43 -3 4 -29 7 -56 8 -74 4 -109 43 -70 78 9 7 75 35 146 61
72 26 132 49 134 51 4 4 -48 53 -155 147 -39 35 -44 69 -14 90 20 14 53 8 478
-83 54 -12 77 -35 66 -65 -12 -30 -44 -31 -152 -8 -59 12 -118 25 -132 28 -14
2 -38 7 -55 11 -28 5 -26 2 29 -47 95 -87 94 -113 -10 -150 -64 -23 -65 -24
-45 -40 38 -31 26 -54 -56 -119 -257 -202 -468 -419 -559 -575 -40 -69 -65
-125 -55 -125 5 0 57 22 117 50 60 27 114 50 121 50 15 0 43 -28 43 -44 0 -6
-30 -52 -66 -101 -113 -154 -192 -300 -243 -453 -17 -51 -31 -100 -31 -108 0
-8 16 4 36 26 20 22 77 63 128 91 201 113 347 240 441 382 131 200 375 356
559 359 189 3 299 -102 320 -308 3 -34 13 -76 22 -93 31 -62 35 -90 13 -112
-23 -23 -37 -24 -59 -4 -12 11 -43 17 -101 19 -151 5 -247 73 -281 200 -7 25
-17 46 -24 46 -13 0 -24 22 -24 50 0 57 197 51 307 -11 19 -11 38 -18 40 -15
3 3 -6 25 -20 49 -65 110 -240 119 -405 22 -32 -18 -69 -42 -82 -53 -24 -19
-24 -20 -7 -64 28 -71 113 -202 168 -257 120 -120 243 -135 395 -49 50 28 52
28 74 10 18 -14 21 -25 16 -45 -11 -47 -198 -121 -283 -111 -168 18 -297 123
-412 335 l-38 70 -21 -48 c-57 -133 -77 -228 -75 -360 2 -261 160 -448 479
-568 37 -14 71 -22 75 -18 3 5 14 42 24 83 39 167 131 422 182 503 27 43 56
47 79 12 12 -18 9 -28 -17 -83 -78 -165 -158 -425 -184 -602 -12 -82 -16 -153
-13 -246 5 -114 8 -138 31 -185 14 -30 38 -68 54 -85 79 -86 219 -121 320 -79
40 17 42 31 7 39 -35 9 -98 50 -134 88 -42 44 -60 84 -67 149 -17 171 169 315
381 295 216 -20 360 -198 292 -361 -35 -84 -113 -152 -201 -177 l-40 -11 41
-18 c139 -62 312 11 382 160 21 46 25 72 29 185 10 256 -57 543 -198 851 -28
61 -29 66 -11 88 19 22 45 22 64 0 42 -51 149 -338 189 -508 12 -55 24 -102
25 -103 4 -6 75 18 142 49 35 16 65 29 68 29 3 0 37 21 76 47 279 184 346 472
193 837 l-17 39 -38 -71 c-174 -320 -405 -414 -656 -267 -49 29 -58 59 -25 90
19 16 22 16 73 -13 73 -41 124 -56 187 -54 133 3 266 123 361 326 16 36 30 69
30 74 0 32 -191 130 -272 141 -65 8 -143 -4 -183 -29 -29 -18 -82 -96 -72
-106 2 -3 20 4 38 15 74 43 242 66 292 40 27 -15 20 -79 -9 -79 -8 0 -14 -8
-14 -18 0 -36 -60 -140 -98 -168 -52 -40 -124 -62 -203 -62 -46 0 -75 -5 -90
-16 -31 -21 -45 -20 -63 5 -13 19 -12 27 4 75 11 30 22 60 26 66 4 6 9 34 11
62 11 155 81 257 200 292 113 33 219 17 361 -55 123 -62 235 -164 319 -290 31
-47 87 -115 125 -152 72 -70 230 -183 333 -238 33 -18 79 -51 103 -74 l43 -42
-6 30 c-39 168 -150 384 -306 591 -22 29 -29 48 -25 62 13 39 42 36 166 -21
l119 -55 -16 41 c-18 47 -106 188 -150 239 -93 111 -313 317 -460 432 -79 62
-92 91 -51 118 20 13 18 15 -47 39 -50 18 -70 31 -77 49 -8 21 -1 31 59 88 60
57 65 64 39 58 -90 -21 -274 -58 -295 -58 -49 -1 -62 64 -17 82 52 20 488 102
511 96 19 -5 25 -13 25 -35 0 -22 -12 -39 -53 -74 -81 -70 -140 -127 -136
-131 2 -2 68 -27 146 -56 146 -53 158 -63 142 -108 -8 -22 -16 -24 -111 -25
-16 0 -28 -3 -28 -7 0 -4 21 -24 47 -46 26 -21 69 -58 96 -82 27 -24 51 -42
53 -40 10 11 28 271 27 413 0 95 -10 286 -18 345 -3 19 -7 51 -10 70 -17 120
-54 273 -92 385 -47 135 -47 135 -68 94z m-1297 -571 c9 -9 12 -101 12 -354 0
-298 -2 -345 -16 -358 -18 -19 -28 -20 -55 -6 -18 10 -19 25 -19 358 0 366 1
372 45 372 12 0 26 -5 33 -12z m-453 -844 c61 -19 125 -69 125 -97 0 -19 -27
-47 -45 -47 -7 0 -26 11 -42 23 -34 29 -82 46 -148 53 -27 3 -58 10 -67 15
-21 11 -25 64 -5 73 21 10 121 -1 182 -20z m1029 20 c10 -4 16 -18 16 -35 0
-32 -23 -49 -68 -49 -46 0 -129 -29 -162 -56 -35 -30 -75 -27 -85 7 -9 28 20
67 71 93 64 33 189 55 228 40z m-746 -376 c26 -32 33 -220 12 -310 -32 -134
-78 -190 -120 -148 -19 19 -19 21 5 84 37 97 46 191 31 305 -5 35 -3 58 5 67
14 17 53 18 67 2z m351 -2 c8 -9 10 -32 5 -66 -15 -113 -6 -208 28 -298 24
-62 24 -81 2 -98 -41 -32 -88 34 -114 161 -20 98 -14 272 12 302 14 17 53 17
67 -1z"/>
<path d="M1860 2840 c0 -22 40 -89 66 -109 34 -27 94 -43 145 -39 l40 3 -25
33 c-44 60 -116 103 -200 118 -15 2 -26 0 -26 -6z"/>
<path d="M3205 2841 c-71 -17 -143 -67 -180 -125 l-19 -29 67 5 c82 7 137 39
167 98 32 62 29 66 -35 51z"/>
<path d="M1273 2558 c-82 -87 -188 -170 -314 -245 -73 -44 -76 -47 -99 -112
-13 -36 -25 -70 -27 -76 -1 -5 -14 -48 -28 -94 -32 -106 -32 -120 2 -80 32 37
100 89 119 89 35 0 42 -27 38 -142 -4 -166 19 -286 79 -397 43 -81 65 -108
255 -300 183 -184 182 -184 156 -89 -7 24 31 59 54 50 30 -11 158 -175 247
-315 27 -43 52 -80 55 -82 3 -2 6 31 7 72 2 79 12 103 47 103 17 0 41 -27 101
-117 228 -340 415 -572 547 -677 l48 -38 37 28 c131 98 345 363 578 717 44 66
63 87 80 87 35 0 46 -23 48 -104 1 -42 3 -76 3 -76 1 0 40 57 87 128 47 70 94
136 104 147 10 11 30 36 43 55 52 74 81 89 110 60 14 -14 19 -29 15 -45 -3
-14 -8 -37 -11 -52 -4 -21 38 17 177 157 191 194 232 246 273 351 42 105 55
190 51 332 l-3 128 25 10 c30 11 51 0 120 -64 23 -22 43 -35 43 -30 0 18 -53
190 -81 264 -23 59 -36 79 -57 88 -34 16 -206 131 -247 166 -16 14 -58 54 -93
88 l-64 62 7 -40 c4 -22 10 -53 14 -70 8 -35 6 -184 -3 -234 -13 -68 -48 -154
-87 -216 -36 -58 -168 -195 -188 -195 -9 0 -118 -146 -185 -249 -42 -64 -74
-125 -194 -371 -34 -68 -122 -160 -188 -193 -27 -14 -55 -35 -62 -46 -19 -32
-112 -89 -187 -116 -81 -28 -218 -32 -299 -8 -72 21 -157 68 -197 109 -19 19
-56 46 -83 60 -62 33 -154 125 -183 184 -156 322 -190 379 -311 543 -36 48
-69 87 -73 87 -5 0 -40 30 -78 66 -146 137 -211 293 -205 494 1 47 7 107 14
134 6 27 9 50 7 52 -2 2 -22 -15 -44 -38z"/>
<path d="M1839 1650 c31 -49 61 -97 68 -107 10 -16 12 -13 13 22 1 22 3 59 6
81 l6 42 -75 25 -75 25 57 -88z"/>
<path d="M3258 1712 l-67 -24 5 -76 c3 -43 7 -78 8 -79 1 -2 31 43 65 98 35
55 61 102 59 103 -1 1 -33 -9 -70 -22z"/>
<path d="M2465 1573 c-71 -26 -114 -60 -136 -107 -25 -54 -24 -92 4 -141 43
-76 132 -117 245 -114 207 6 320 187 190 306 -72 66 -204 91 -303 56z"/>
<path d="M2545 1080 c-12 -20 -99 -64 -148 -75 l-50 -11 54 -23 c75 -33 196
-39 283 -16 66 18 108 45 70 45 -38 0 -94 22 -144 55 -58 39 -57 39 -65 25z"/>
</g>
</svg>
